<svg width="561" height="524" viewBox="0 0 561 524" fill="none" xmlns="http://www.w3.org/2000/svg">
<mask id="path-1-inside-1_139_3" fill="white">
<path d="M519.46 75.332V33.801H490.995V0.667969H332.795V33.801H299.662V75.332H262.326V33.801H224.994V0.667969H70.994V33.801H38.326V75.332H0.994019V224.672H38.326V299.34L70.994 299.336V340.871H108.326V378.672H150.326V411.336H187.662V448.672H224.994V486.004H262.326V523.336H299.658L299.662 486.004H332.795V448.672H374.326V411.336H415.861V378.672H448.994V341.34L490.994 341.336V299.336H519.928V224.672H560.994V75.3322L519.46 75.332ZM187.66 75.332H112.992V220.462H70.992V75.332H112.992V33.801H187.66V75.332Z"/>
</mask>
<path d="M519.46 75.332V33.801H490.995V0.667969H332.795V33.801H299.662V75.332H262.326V33.801H224.994V0.667969H70.994V33.801H38.326V75.332H0.994019V224.672H38.326V299.34L70.994 299.336V340.871H108.326V378.672H150.326V411.336H187.662V448.672H224.994V486.004H262.326V523.336H299.658L299.662 486.004H332.795V448.672H374.326V411.336H415.861V378.672H448.994V341.34L490.994 341.336V299.336H519.928V224.672H560.994V75.3322L519.46 75.332ZM187.66 75.332H112.992V220.462H70.992V75.332H112.992V33.801H187.66V75.332Z" fill="url(#paint0_radial_139_3)"/>
<path d="M519.46 75.332H514.46V80.3319L519.46 80.332L519.46 75.332ZM519.46 33.801H524.46V28.801H519.46V33.801ZM490.995 33.801H485.995V38.801H490.995V33.801ZM490.995 0.667969H495.995V-4.33203H490.995V0.667969ZM332.795 0.667969V-4.33203H327.795V0.667969H332.795ZM332.795 33.801V38.801H337.795V33.801H332.795ZM299.662 33.801V28.801H294.662V33.801H299.662ZM299.662 75.332V80.332H304.662V75.332H299.662ZM262.326 75.332H257.326V80.332H262.326V75.332ZM262.326 33.801H267.326V28.801H262.326V33.801ZM224.994 33.801H219.994V38.801H224.994V33.801ZM224.994 0.667969H229.994V-4.33203H224.994V0.667969ZM70.994 0.667969V-4.33203H65.994V0.667969H70.994ZM70.994 33.801V38.801H75.994V33.801H70.994ZM38.326 33.801V28.801H33.326V33.801H38.326ZM38.326 75.332V80.332H43.326V75.332H38.326ZM0.994019 75.332V70.332H-4.00598V75.332H0.994019ZM0.994019 224.672H-4.00598V229.672H0.994019V224.672ZM38.326 224.672H43.326V219.672H38.326V224.672ZM38.326 299.34H33.326V304.341L38.3266 304.34L38.326 299.34ZM70.994 299.336H75.994V294.335L70.9934 294.336L70.994 299.336ZM70.994 340.871H65.994V345.871H70.994V340.871ZM108.326 340.871H113.326V335.871H108.326V340.871ZM108.326 378.672H103.326V383.672H108.326V378.672ZM150.326 378.672H155.326V373.672H150.326V378.672ZM150.326 411.336H145.326V416.336H150.326V411.336ZM187.662 411.336H192.662V406.336H187.662V411.336ZM187.662 448.672H182.662V453.672H187.662V448.672ZM224.994 448.672H229.994V443.672H224.994V448.672ZM224.994 486.004H219.994V491.004H224.994V486.004ZM262.326 486.004H267.326V481.004H262.326V486.004ZM262.326 523.336H257.326V528.336H262.326V523.336ZM299.658 523.336V528.336H304.657L304.658 523.337L299.658 523.336ZM299.662 486.004V481.004H294.662L294.662 486.004L299.662 486.004ZM332.795 486.004V491.004H337.795V486.004H332.795ZM332.795 448.672V443.672H327.795V448.672H332.795ZM374.326 448.672V453.672H379.326V448.672H374.326ZM374.326 411.336V406.336H369.326V411.336H374.326ZM415.861 411.336V416.336H420.861V411.336H415.861ZM415.861 378.672V373.672H410.861V378.672H415.861ZM448.994 378.672V383.672H453.994V378.672H448.994ZM448.994 341.34L448.993 336.34L443.994 336.341V341.34H448.994ZM490.994 341.336L490.994 346.336L495.994 346.336V341.336H490.994ZM490.994 299.336V294.336H485.994V299.336H490.994ZM519.928 299.336V304.336H524.928V299.336H519.928ZM519.928 224.672V219.672H514.928V224.672H519.928ZM560.994 224.672V229.672H565.994V224.672H560.994ZM560.994 75.3322H565.994V70.3322L560.994 70.3322L560.994 75.3322ZM187.66 75.332V80.332H192.66V75.332H187.66ZM112.992 220.462V225.462H117.992V220.462H112.992ZM70.992 220.462H65.992V225.462H70.992V220.462ZM70.992 75.332V70.332H65.992V75.332H70.992ZM112.992 33.801V28.801H107.992V33.801H112.992ZM187.66 33.801H192.66V28.801H187.66V33.801ZM524.46 75.332V33.801H514.46V75.332H524.46ZM519.46 28.801H490.995V38.801H519.46V28.801ZM495.995 33.801V0.667969H485.995V33.801H495.995ZM490.995 -4.33203H332.795V5.66797H490.995V-4.33203ZM327.795 0.667969V33.801H337.795V0.667969H327.795ZM332.795 28.801H299.662V38.801H332.795V28.801ZM294.662 33.801V75.332H304.662V33.801H294.662ZM299.662 70.332H262.326V80.332H299.662V70.332ZM267.326 75.332V33.801H257.326V75.332H267.326ZM262.326 28.801H224.994V38.801H262.326V28.801ZM229.994 33.801V0.667969H219.994V33.801H229.994ZM224.994 -4.33203H70.994V5.66797H224.994V-4.33203ZM65.994 0.667969V33.801H75.994V0.667969H65.994ZM70.994 28.801H38.326V38.801H70.994V28.801ZM33.326 33.801V75.332H43.326V33.801H33.326ZM38.326 70.332H0.994019V80.332H38.326V70.332ZM-4.00598 75.332V224.672H5.99402V75.332H-4.00598ZM0.994019 229.672H38.326V219.672H0.994019V229.672ZM33.326 224.672V299.34H43.326V224.672H33.326ZM38.3266 304.34L70.9946 304.336L70.9934 294.336L38.3254 294.34L38.3266 304.34ZM65.994 299.336V340.871H75.994V299.336H65.994ZM70.994 345.871H108.326V335.871H70.994V345.871ZM103.326 340.871V378.672H113.326V340.871H103.326ZM108.326 383.672H150.326V373.672H108.326V383.672ZM145.326 378.672V411.336H155.326V378.672H145.326ZM150.326 416.336H187.662V406.336H150.326V416.336ZM182.662 411.336V448.672H192.662V411.336H182.662ZM187.662 453.672H224.994V443.672H187.662V453.672ZM219.994 448.672V486.004H229.994V448.672H219.994ZM224.994 491.004H262.326V481.004H224.994V491.004ZM257.326 486.004V523.336H267.326V486.004H257.326ZM262.326 528.336H299.658V518.336H262.326V528.336ZM304.658 523.337L304.662 486.005L294.662 486.004L294.658 523.336L304.658 523.337ZM299.662 491.004H332.795V481.004H299.662V491.004ZM337.795 486.004V448.672H327.795V486.004H337.795ZM332.795 453.672H374.326V443.672H332.795V453.672ZM379.326 448.672V411.336H369.326V448.672H379.326ZM374.326 416.336H415.861V406.336H374.326V416.336ZM420.861 411.336V378.672H410.861V411.336H420.861ZM415.861 383.672H448.994V373.672H415.861V383.672ZM453.994 378.672V341.34H443.994V378.672H453.994ZM448.994 346.34L490.994 346.336L490.993 336.336L448.993 336.34L448.994 346.34ZM495.994 341.336V299.336H485.994V341.336H495.994ZM490.994 304.336H519.928V294.336H490.994V304.336ZM524.928 299.336V224.672H514.928V299.336H524.928ZM519.928 229.672H560.994V219.672H519.928V229.672ZM565.994 224.672V75.3322H555.994V224.672H565.994ZM560.994 70.3322L519.46 70.332L519.46 80.332L560.994 80.3322L560.994 70.3322ZM187.66 70.332H112.992V80.332H187.66V70.332ZM107.992 75.332V220.462H117.992V75.332H107.992ZM112.992 215.462H70.992V225.462H112.992V215.462ZM75.992 220.462V75.332H65.992V220.462H75.992ZM70.992 80.332H112.992V70.332H70.992V80.332ZM117.992 75.332V33.801H107.992V75.332H117.992ZM112.992 38.801H187.66V28.801H112.992V38.801ZM182.66 33.801V75.332H192.66V33.801H182.66Z" fill="black" mask="url(#path-1-inside-1_139_3)"/>
<defs>
<radialGradient id="paint0_radial_139_3" cx="0" cy="0" r="1" gradientUnits="userSpaceOnUse" gradientTransform="translate(135 106) rotate(70.719) scale(442.135 473.715)">
<stop stop-color="#FF0000"/>
<stop offset="1" stop-color="#670F0F"/>
</radialGradient>
</defs>
</svg>
